<svg width="9" height="17" fill="none" xmlns="http://www.w3.org/2000/svg"><path d="M8.814 0H6.34c-.638.088-1.197.186-1.747.55-1.099.736-1.747 1.747-1.835 3.023v1.835c0 .186 0 .186-.187.186H.186C0 5.594 0 5.683 0 5.781v2.296c0 .187.088.187.186.187h2.385c.187 0 .187 0 .187.186v7.43c0 .275 0 .275.186.275h2.66c.187 0 .187-.088.187-.187V8.54c0-.275 0-.275.274-.275h2.749C9 8.264 9 8.176 9 8.077V5.781c0-.187 0-.187-.186-.187H5.967c-.186 0-.186-.088-.186-.186V3.474c.088-.363.363-.638.824-.638h2.199c.088 0 .186 0 .186-.186V.177C9 0 8.912 0 8.814 0z" fill="#fff"/></svg>