<svg width="16" height="16" fill="none" xmlns="http://www.w3.org/2000/svg"><path d="M8 1.444c2.138 0 2.388.01 3.235.043 2.17.098 3.18 1.129 3.278 3.278.043.847.043 1.097.043 3.235s-.01 2.388-.043 3.235c-.098 2.149-1.107 3.18-3.278 3.278-.847.043-1.097.043-3.235.043s-2.388-.01-3.235-.043c-2.17-.098-3.18-1.129-3.278-3.278-.043-.847-.043-1.097-.043-3.235s.01-2.388.043-3.235c.098-2.149 1.107-3.18 3.278-3.278.836-.043 1.097-.043 3.235-.043zM8 0C5.829 0 5.558.01 4.7.043 1.791.173.174 1.791.043 4.7 0 5.558 0 5.83 0 8s.01 2.442.043 3.3c.13 2.909 1.748 4.526 4.657 4.657C5.558 16 5.83 16 8 16s2.442-.01 3.3-.043c2.898-.13 4.526-1.748 4.657-4.657C16 10.442 16 10.17 16 8s-.01-2.442-.043-3.3C15.827 1.802 14.209.174 11.3.043 10.442.011 10.17 0 8 0zm0 3.886A4.111 4.111 0 003.886 8 4.105 4.105 0 008 12.114 4.112 4.112 0 0012.114 8C12.104 5.731 10.269 3.886 8 3.886zm0 6.784A2.668 2.668 0 015.33 8 2.668 2.668 0 018 5.33 2.668 2.668 0 0110.67 8 2.682 2.682 0 018 10.67zm4.266-7.902a.966.966 0 00-.966.955c0 .532.434.955.966.955a.957.957 0 00.955-.955.957.957 0 00-.955-.955z" fill="#fff"/></svg>