<svg width="16" height="14" fill="none" xmlns="http://www.w3.org/2000/svg"><path d="M15.7.207c-.712.402-1.311.712-2.127.805C12.963.3 12.158 0 11.145 0c-2.128 0-3.75 2.025-3.243 4.05C5.165 3.945 2.737 2.633 1.116.61.31 2.024.609 4.05 2.128 4.967c-.61 0-1.012-.206-1.519-.402 0 1.518 1.013 2.933 2.634 3.243-.506.103-.909.206-1.518.103.403 1.312 1.622 2.324 3.037 2.324-1.22 1.22-3.037 1.725-4.762 1.519 1.415.909 3.14 1.415 5.061 1.415 6.074 0 9.514-5.165 9.317-9.823.713-.506 1.22-1.013 1.622-1.725-.61.3-1.219.506-1.921.506.909-.403 1.415-1.116 1.621-1.921z" fill="#fff"/></svg>